<svg xmlns="http://www.w3.org/2000/svg" width="200" height="60" viewBox="0 0 200 60" fill="none">
<defs>
  <linearGradient id="g" x1="0" y1="0" x2="1" y2="1">
    <stop offset="0" stop-color="#EC4899"/><stop offset="0.25" stop-color="#151827"/>
    <stop offset="0.5" stop-color="#F97316"/><stop offset="0.75" stop-color="#151827"/><stop offset="1" stop-color="#EC4899"/>
    <animateTransform attributeName="gradientTransform" type="rotate" from="0 0.5 0.5" to="360 0.5 0.5" dur="6s" repeatCount="indefinite"/>
  </linearGradient>
  <radialGradient id="glow" cx="0.5" cy="1" r="0.9"><stop offset="0" stop-color="#F97316" stop-opacity="0.22"/>
    <stop offset="1" stop-color="#F97316" stop-opacity="0"/></radialGradient>
</defs>
<rect x="1.5" y="1.5" width="197" height="57" rx="28.5" fill="#090A14"/>
<rect x="1.5" y="1.5" width="197" height="57" rx="28.5" fill="url(#glow)"/>
<rect x="1.5" y="1.5" width="197" height="57" rx="28.5" stroke="url(#g)" stroke-width="2.2"/>
<g transform="translate(55.6 18.0)"><path d="M24 5.457v13.909c0 .904-.732 1.636-1.636 1.636h-3.819V11.73L12 16.64l-6.545-4.91v9.273H1.636A1.636 1.636 0 0 1 0 19.366V5.457c0-2.023 2.309-3.178 3.927-1.964L5.455 4.64 12 9.548l6.545-4.91 1.528-1.145C21.69 2.28 24 3.434 24 5.457z" fill="#EA4335"/></g>
<text x="91.6" y="36.6" font-family="-apple-system, BlinkMacSystemFont, 'Segoe UI', Helvetica, Arial, sans-serif" font-size="19" font-weight="700"
  letter-spacing="0.3" fill="#F8FAFC">Email</text>
</svg>
