<svg xmlns="http://www.w3.org/2000/svg" width="200" height="60" viewBox="0 0 200 60" fill="none">
<defs>
  <linearGradient id="g" x1="0" y1="0" x2="1" y2="1">
    <stop offset="0" stop-color="#22D3EE"/><stop offset="0.25" stop-color="#151827"/>
    <stop offset="0.5" stop-color="#8B5CF6"/><stop offset="0.75" stop-color="#151827"/><stop offset="1" stop-color="#22D3EE"/>
    <animateTransform attributeName="gradientTransform" type="rotate" from="0 0.5 0.5" to="360 0.5 0.5" dur="6s" repeatCount="indefinite"/>
  </linearGradient>
  <radialGradient id="glow" cx="0.5" cy="1" r="0.9"><stop offset="0" stop-color="#8B5CF6" stop-opacity="0.22"/>
    <stop offset="1" stop-color="#8B5CF6" stop-opacity="0"/></radialGradient>
</defs>
<rect x="1.5" y="1.5" width="197" height="57" rx="28.5" fill="#090A14"/>
<rect x="1.5" y="1.5" width="197" height="57" rx="28.5" fill="url(#glow)"/>
<rect x="1.5" y="1.5" width="197" height="57" rx="28.5" stroke="url(#g)" stroke-width="2.2"/>
<g transform="translate(49.2 18.0)"><path d="M12 .297c-6.63 0-12 5.373-12 12 0 5.303 3.438 9.8 8.205 11.385.6.113.82-.258.82-.577 0-.285-.01-1.04-.015-2.04-3.338.724-4.042-1.61-4.042-1.61C4.422 18.07 3.633 17.7 3.633 17.7c-1.087-.744.084-.729.084-.729 1.205.084 1.838 1.236 1.838 1.236 1.07 1.835 2.809 1.305 3.495.998.108-.776.417-1.305.76-1.605-2.665-.3-5.466-1.332-5.466-5.93 0-1.31.465-2.38 1.235-3.22-.135-.303-.54-1.523.105-3.176 0 0 1.005-.322 3.3 1.23.96-.267 1.98-.399 3-.405 1.02.006 2.04.138 3 .405 2.28-1.552 3.285-1.23 3.285-1.23.645 1.653.24 2.873.12 3.176.765.84 1.23 1.91 1.23 3.22 0 4.61-2.805 5.625-5.475 5.92.42.36.81 1.096.81 2.22 0 1.606-.015 2.896-.015 3.286 0 .315.21.69.825.57C20.565 22.092 24 17.592 24 12.297c0-6.627-5.373-12-12-12" fill="#FFFFFF"/></g>
<text x="85.2" y="36.6" font-family="-apple-system, BlinkMacSystemFont, 'Segoe UI', Helvetica, Arial, sans-serif" font-size="19" font-weight="700"
  letter-spacing="0.3" fill="#F8FAFC">GitHub</text>
</svg>
